<svg xmlns="http://www.w3.org/2000/svg" width="112" height="70" viewBox="0 0 112 70" role="img" aria-labelledby="title">
<title id="title">Portfólio</title>
<rect x="1" y="1" width="110" height="64" rx="8" fill="#101b1e" stroke="#30413f"/><path d="M35 1H77" stroke="#8cf0c7" stroke-opacity=".7"/><svg x="46" y="12" width="20" height="20" viewBox="0 0 16 16" fill="#8cf0c7"><ns0:path xmlns:ns0="http://www.w3.org/2000/svg" d="M0 8a8 8 0 1 1 16 0A8 8 0 0 1 0 8m7.5-6.923c-.67.204-1.335.82-1.887 1.855q-.215.403-.395.872c.705.157 1.472.257 2.282.287zM4.249 3.539q.214-.577.481-1.078a7 7 0 0 1 .597-.933A7 7 0 0 0 3.051 3.05q.544.277 1.198.49zM3.509 7.5c.036-1.07.188-2.087.436-3.008a9 9 0 0 1-1.565-.667A6.96 6.96 0 0 0 1.018 7.5zm1.4-2.741a12.3 12.3 0 0 0-.4 2.741H7.5V5.091c-.91-.03-1.783-.145-2.591-.332M8.5 5.09V7.5h2.99a12.3 12.3 0 0 0-.399-2.741c-.808.187-1.681.301-2.591.332zM4.51 8.5c.035.987.176 1.914.399 2.741A13.6 13.6 0 0 1 7.5 10.91V8.5zm3.99 0v2.409c.91.03 1.783.145 2.591.332.223-.827.364-1.754.4-2.741zm-3.282 3.696q.18.469.395.872c.552 1.035 1.218 1.65 1.887 1.855V11.91c-.81.03-1.577.13-2.282.287zm.11 2.276a7 7 0 0 1-.598-.933 9 9 0 0 1-.481-1.079 8.4 8.4 0 0 0-1.198.49 7 7 0 0 0 2.276 1.522zm-1.383-2.964A13.4 13.4 0 0 1 3.508 8.5h-2.49a6.96 6.96 0 0 0 1.362 3.675c.47-.258.995-.482 1.565-.667m6.728 2.964a7 7 0 0 0 2.275-1.521 8.4 8.4 0 0 0-1.197-.49 9 9 0 0 1-.481 1.078 7 7 0 0 1-.597.933M8.5 11.909v3.014c.67-.204 1.335-.82 1.887-1.855q.216-.403.395-.872A12.6 12.6 0 0 0 8.5 11.91zm3.555-.401c.57.185 1.095.409 1.565.667A6.96 6.96 0 0 0 14.982 8.5h-2.49a13.4 13.4 0 0 1-.437 3.008M14.982 7.5a6.96 6.96 0 0 0-1.362-3.675c-.47.258-.995.482-1.565.667.248.92.4 1.938.437 3.008zM11.27 2.461q.266.502.482 1.078a8.4 8.4 0 0 0 1.196-.49 7 7 0 0 0-2.275-1.52c.218.283.418.597.597.932m-.488 1.343a8 8 0 0 0-.395-.872C9.835 1.897 9.17 1.282 8.5 1.077V4.09c.81-.03 1.577-.13 2.282-.287z" />
</svg><path d="M94 12H99V17M94 17 99 12" fill="none" stroke="#6c8380" stroke-width="1"/><g fill="#e5efed"><path d="M86 0V700H345Q407 700 456.5 676.5Q506 653 535.0 609.0Q564 565 564 502V490Q564 427 534.5 382.5Q505 338 455.5 315.0Q406 292 345 292H150V0ZM150 350H338Q413 350 456.5 387.0Q500 424 500 491V501Q500 569 457.5 605.5Q415 642 338 642H150Z" transform="translate(30.758 52) scale(0.012000 -0.012000)"/><path d="M310 -14Q236 -14 180.5 17.5Q125 49 94.5 105.5Q64 162 64 237V249Q64 324 94.5 380.5Q125 437 180.5 468.5Q236 500 310 500Q384 500 439.5 468.5Q495 437 525.5 380.5Q556 324 556 249V237Q556 162 525.5 105.5Q495 49 439.5 17.5Q384 -14 310 -14ZM310 40Q396 40 446.0 94.5Q496 149 496 239V247Q496 337 446.0 391.5Q396 446 310 446Q225 446 174.5 391.5Q124 337 124 247V239Q124 149 174.5 94.5Q225 40 310 40Z" transform="translate(37.958 52) scale(0.012000 -0.012000)"/><path d="M88 0V486H146V425H158Q172 458 199.5 473.0Q227 488 276 488H333V432H269Q214 432 181.0 401.0Q148 370 148 304V0Z" transform="translate(45.398 52) scale(0.012000 -0.012000)"/><path d="M264 0Q225 0 205.5 20.0Q186 40 186 76V432H30V486H186V668H246V486H416V432H246V84Q246 54 276 54H390V0Z" transform="translate(49.826 52) scale(0.012000 -0.012000)"/><path d="M190 0V432H30V486H190V624Q190 660 209.5 680.0Q229 700 268 700H388V646H280Q250 646 250 616V486H414V432H250V0Z" transform="translate(55.370 52) scale(0.012000 -0.012000)"/><path d="M310 -14Q236 -14 180.5 17.5Q125 49 94.5 105.5Q64 162 64 237V249Q64 324 94.5 380.5Q125 437 180.5 468.5Q236 500 310 500Q384 500 439.5 468.5Q495 437 525.5 380.5Q556 324 556 249V237Q556 162 525.5 105.5Q495 49 439.5 17.5Q384 -14 310 -14ZM310 40Q396 40 446.0 94.5Q496 149 496 239V247Q496 337 446.0 391.5Q396 446 310 446Q225 446 174.5 391.5Q124 337 124 247V239Q124 149 174.5 94.5Q225 40 310 40ZM267 556 345 688H421L329 556Z" transform="translate(60.698 52) scale(0.012000 -0.012000)"/><path d="M88 0V700H148V0Z" transform="translate(68.138 52) scale(0.012000 -0.012000)"/><path d="M88 0V486H148V0ZM118 570Q96 570 81.0 585.0Q66 600 66 622Q66 645 81.0 659.5Q96 674 118 674Q141 674 155.5 659.5Q170 645 170 622Q170 600 155.5 585.0Q141 570 118 570Z" transform="translate(70.970 52) scale(0.012000 -0.012000)"/><path d="M310 -14Q236 -14 180.5 17.5Q125 49 94.5 105.5Q64 162 64 237V249Q64 324 94.5 380.5Q125 437 180.5 468.5Q236 500 310 500Q384 500 439.5 468.5Q495 437 525.5 380.5Q556 324 556 249V237Q556 162 525.5 105.5Q495 49 439.5 17.5Q384 -14 310 -14ZM310 40Q396 40 446.0 94.5Q496 149 496 239V247Q496 337 446.0 391.5Q396 446 310 446Q225 446 174.5 391.5Q124 337 124 247V239Q124 149 174.5 94.5Q225 40 310 40Z" transform="translate(73.802 52) scale(0.012000 -0.012000)"/></g>
</svg>
