<svg xmlns="http://www.w3.org/2000/svg" width="168" height="26" viewBox="0 0 168 26" role="img" aria-labelledby="title">
<title id="title">Repositório privado</title>
<rect x=".5" y=".5" width="167" height="25" rx="6" fill="#10181c" stroke="#2b393d"/><g fill="none" stroke="#9eb4ae" stroke-width="1.2"><rect x="12" y="11" width="9" height="8" rx="1.5"/><path d="M14 11V8a2.5 2.5 0 0 1 5 0v3"/><path d="M16.5 14V16"/></g><g fill="#acbcb7"><path d="M86 0V700H360Q425 700 474.5 678.0Q524 656 552.5 614.5Q581 573 581 514V504Q581 433 547.0 392.5Q513 352 467 339V327Q502 326 526.0 305.0Q550 284 550 238V0H486V231Q486 263 468.5 280.0Q451 297 416 297H150V0ZM150 355H354Q432 355 474.5 391.5Q517 428 517 496V501Q517 569 475.5 605.5Q434 642 354 642H150Z" transform="translate(30.000 17) scale(0.012000 -0.012000)"/><path d="M312 -14Q237 -14 181.5 17.5Q126 49 95.0 106.0Q64 163 64 237V249Q64 324 95.0 380.5Q126 437 180.5 468.5Q235 500 305 500Q373 500 425.5 471.5Q478 443 508.0 389.5Q538 336 538 262V230H124Q127 139 179.5 89.5Q232 40 312 40Q380 40 417.5 71.0Q455 102 475 147L529 123Q514 90 487.5 58.5Q461 27 419.0 6.5Q377 -14 312 -14ZM125 282H477Q473 361 426.0 403.5Q379 446 305 446Q232 446 184.0 403.5Q136 361 125 282Z" transform="translate(37.572 17) scale(0.012000 -0.012000)"/><path d="M88 -200V486H146V397H158Q179 437 223.5 468.5Q268 500 348 500Q413 500 466.0 469.5Q519 439 550.5 383.0Q582 327 582 249V237Q582 160 551.0 103.5Q520 47 467.0 16.5Q414 -14 348 -14Q295 -14 257.5 0.5Q220 15 196.5 38.0Q173 61 160 85H148V-200ZM334 40Q417 40 468.5 93.0Q520 146 520 239V247Q520 340 468.5 393.0Q417 446 334 446Q252 446 200.0 393.0Q148 340 148 247V239Q148 146 200.0 93.0Q252 40 334 40Z" transform="translate(44.748 17) scale(0.012000 -0.012000)"/><path d="M310 -14Q236 -14 180.5 17.5Q125 49 94.5 105.5Q64 162 64 237V249Q64 324 94.5 380.5Q125 437 180.5 468.5Q236 500 310 500Q384 500 439.5 468.5Q495 437 525.5 380.5Q556 324 556 249V237Q556 162 525.5 105.5Q495 49 439.5 17.5Q384 -14 310 -14ZM310 40Q396 40 446.0 94.5Q496 149 496 239V247Q496 337 446.0 391.5Q396 446 310 446Q225 446 174.5 391.5Q124 337 124 247V239Q124 149 174.5 94.5Q225 40 310 40Z" transform="translate(52.500 17) scale(0.012000 -0.012000)"/><path d="M281 -14Q193 -14 130.5 28.0Q68 70 54 167L113 178Q121 125 145.5 94.5Q170 64 205.5 51.0Q241 38 281 38Q341 38 377.5 62.5Q414 87 414 130Q414 174 379.5 191.0Q345 208 288 218L242 226Q196 234 159.0 250.5Q122 267 100.5 295.0Q79 323 79 365Q79 428 128.5 464.0Q178 500 260 500Q343 500 393.5 462.5Q444 425 457 354L401 342Q391 400 353.5 424.0Q316 448 260 448Q205 448 172.0 427.0Q139 406 139 365Q139 325 169.0 306.5Q199 288 251 279L297 271Q347 263 387.0 247.5Q427 232 450.5 204.0Q474 176 474 130Q474 61 422.0 23.5Q370 -14 281 -14Z" transform="translate(59.940 17) scale(0.012000 -0.012000)"/><path d="M88 0V486H148V0ZM118 570Q96 570 81.0 585.0Q66 600 66 622Q66 645 81.0 659.5Q96 674 118 674Q141 674 155.5 659.5Q170 645 170 622Q170 600 155.5 585.0Q141 570 118 570Z" transform="translate(66.276 17) scale(0.012000 -0.012000)"/><path d="M264 0Q225 0 205.5 20.0Q186 40 186 76V432H30V486H186V668H246V486H416V432H246V84Q246 54 276 54H390V0Z" transform="translate(69.108 17) scale(0.012000 -0.012000)"/><path d="M310 -14Q236 -14 180.5 17.5Q125 49 94.5 105.5Q64 162 64 237V249Q64 324 94.5 380.5Q125 437 180.5 468.5Q236 500 310 500Q384 500 439.5 468.5Q495 437 525.5 380.5Q556 324 556 249V237Q556 162 525.5 105.5Q495 49 439.5 17.5Q384 -14 310 -14ZM310 40Q396 40 446.0 94.5Q496 149 496 239V247Q496 337 446.0 391.5Q396 446 310 446Q225 446 174.5 391.5Q124 337 124 247V239Q124 149 174.5 94.5Q225 40 310 40ZM267 556 345 688H421L329 556Z" transform="translate(74.652 17) scale(0.012000 -0.012000)"/><path d="M88 0V486H146V425H158Q172 458 199.5 473.0Q227 488 276 488H333V432H269Q214 432 181.0 401.0Q148 370 148 304V0Z" transform="translate(82.092 17) scale(0.012000 -0.012000)"/><path d="M88 0V486H148V0ZM118 570Q96 570 81.0 585.0Q66 600 66 622Q66 645 81.0 659.5Q96 674 118 674Q141 674 155.5 659.5Q170 645 170 622Q170 600 155.5 585.0Q141 570 118 570Z" transform="translate(86.520 17) scale(0.012000 -0.012000)"/><path d="M310 -14Q236 -14 180.5 17.5Q125 49 94.5 105.5Q64 162 64 237V249Q64 324 94.5 380.5Q125 437 180.5 468.5Q236 500 310 500Q384 500 439.5 468.5Q495 437 525.5 380.5Q556 324 556 249V237Q556 162 525.5 105.5Q495 49 439.5 17.5Q384 -14 310 -14ZM310 40Q396 40 446.0 94.5Q496 149 496 239V247Q496 337 446.0 391.5Q396 446 310 446Q225 446 174.5 391.5Q124 337 124 247V239Q124 149 174.5 94.5Q225 40 310 40Z" transform="translate(89.352 17) scale(0.012000 -0.012000)"/><path d="" transform="translate(96.792 17) scale(0.012000 -0.012000)"/><path d="M88 -200V486H146V397H158Q179 437 223.5 468.5Q268 500 348 500Q413 500 466.0 469.5Q519 439 550.5 383.0Q582 327 582 249V237Q582 160 551.0 103.5Q520 47 467.0 16.5Q414 -14 348 -14Q295 -14 257.5 0.5Q220 15 196.5 38.0Q173 61 160 85H148V-200ZM334 40Q417 40 468.5 93.0Q520 146 520 239V247Q520 340 468.5 393.0Q417 446 334 446Q252 446 200.0 393.0Q148 340 148 247V239Q148 146 200.0 93.0Q252 40 334 40Z" transform="translate(99.888 17) scale(0.012000 -0.012000)"/><path d="M88 0V486H146V425H158Q172 458 199.5 473.0Q227 488 276 488H333V432H269Q214 432 181.0 401.0Q148 370 148 304V0Z" transform="translate(107.640 17) scale(0.012000 -0.012000)"/><path d="M88 0V486H148V0ZM118 570Q96 570 81.0 585.0Q66 600 66 622Q66 645 81.0 659.5Q96 674 118 674Q141 674 155.5 659.5Q170 645 170 622Q170 600 155.5 585.0Q141 570 118 570Z" transform="translate(112.068 17) scale(0.012000 -0.012000)"/><path d="M220 0 38 486H102L262 46H274L434 486H498L316 0Z" transform="translate(114.900 17) scale(0.012000 -0.012000)"/><path d="M237 -14Q186 -14 144.5 3.5Q103 21 79.0 55.0Q55 89 55 137Q55 186 79.0 218.0Q103 250 144.0 266.0Q185 282 235 282H413V321Q413 380 379.0 413.0Q345 446 280 446Q216 446 178.5 414.5Q141 383 128 330L70 347Q82 390 108.0 424.5Q134 459 177.0 479.5Q220 500 280 500Q372 500 422.5 452.0Q473 404 473 318V82Q473 52 501 52H548V0H484Q453 0 435.0 18.5Q417 37 417 69V76H407Q394 54 373.5 33.0Q353 12 320.0 -1.0Q287 -14 237 -14ZM241 40Q318 40 365.5 86.5Q413 133 413 218V230H236Q184 230 149.5 207.5Q115 185 115 138Q115 91 150.5 65.5Q186 40 241 40Z" transform="translate(121.332 17) scale(0.012000 -0.012000)"/><path d="M298 -14Q233 -14 180.0 16.5Q127 47 95.5 103.5Q64 160 64 237V249Q64 326 95.0 382.5Q126 439 179.5 469.5Q233 500 298 500Q352 500 389.0 485.5Q426 471 449.5 448.5Q473 426 486 401H498V700H558V0H500V89H488Q467 49 422.5 17.5Q378 -14 298 -14ZM312 40Q395 40 446.5 93.0Q498 146 498 239V247Q498 340 446.5 393.0Q395 446 312 446Q230 446 178.0 393.0Q126 340 126 247V239Q126 146 178.0 93.0Q230 40 312 40Z" transform="translate(128.220 17) scale(0.012000 -0.012000)"/><path d="M310 -14Q236 -14 180.5 17.5Q125 49 94.5 105.5Q64 162 64 237V249Q64 324 94.5 380.5Q125 437 180.5 468.5Q236 500 310 500Q384 500 439.5 468.5Q495 437 525.5 380.5Q556 324 556 249V237Q556 162 525.5 105.5Q495 49 439.5 17.5Q384 -14 310 -14ZM310 40Q396 40 446.0 94.5Q496 149 496 239V247Q496 337 446.0 391.5Q396 446 310 446Q225 446 174.5 391.5Q124 337 124 247V239Q124 149 174.5 94.5Q225 40 310 40Z" transform="translate(135.972 17) scale(0.012000 -0.012000)"/></g>
</svg>
