<svg xmlns="http://www.w3.org/2000/svg" width="81" height="32" viewBox="0 0 81 32" role="img" aria-labelledby="title">
<title id="title">Spring</title>
<rect x=".5" y=".5" width="80" height="31" rx="8" fill="#10181c" stroke="#2b393d"/><circle cx="15" cy="16" r="3" fill="#94cf67"/><g fill="#e5efed"><path d="M315 -14Q240 -14 181.0 12.5Q122 39 88.0 93.5Q54 148 54 232V251H118V232Q118 135 173.5 88.5Q229 42 315 42Q402 42 449.0 82.5Q496 123 496 186Q496 228 475.5 253.5Q455 279 418.5 294.5Q382 310 334 322L270 338Q213 353 168.0 375.5Q123 398 97.0 434.5Q71 471 71 528Q71 585 100.5 627.0Q130 669 182.0 691.5Q234 714 303 714Q372 714 427.5 690.0Q483 666 515.5 619.5Q548 573 548 503V456H484V503Q484 558 460.0 592.0Q436 626 395.0 642.0Q354 658 303 658Q230 658 182.5 624.5Q135 591 135 528Q135 486 154.5 461.0Q174 436 209.5 421.0Q245 406 293 394L357 378Q412 365 458.0 343.5Q504 322 532.0 284.5Q560 247 560 186Q560 125 529.5 80.0Q499 35 444.0 10.5Q389 -14 315 -14Z" transform="translate(27.000 21) scale(0.013000 -0.013000)"/><path d="M88 -200V486H146V397H158Q179 437 223.5 468.5Q268 500 348 500Q413 500 466.0 469.5Q519 439 550.5 383.0Q582 327 582 249V237Q582 160 551.0 103.5Q520 47 467.0 16.5Q414 -14 348 -14Q295 -14 257.5 0.5Q220 15 196.5 38.0Q173 61 160 85H148V-200ZM334 40Q417 40 468.5 93.0Q520 146 520 239V247Q520 340 468.5 393.0Q417 446 334 446Q252 446 200.0 393.0Q148 340 148 247V239Q148 146 200.0 93.0Q252 40 334 40Z" transform="translate(35.008 21) scale(0.013000 -0.013000)"/><path d="M88 0V486H146V425H158Q172 458 199.5 473.0Q227 488 276 488H333V432H269Q214 432 181.0 401.0Q148 370 148 304V0Z" transform="translate(43.406 21) scale(0.013000 -0.013000)"/><path d="M88 0V486H148V0ZM118 570Q96 570 81.0 585.0Q66 600 66 622Q66 645 81.0 659.5Q96 674 118 674Q141 674 155.5 659.5Q170 645 170 622Q170 600 155.5 585.0Q141 570 118 570Z" transform="translate(48.203 21) scale(0.013000 -0.013000)"/><path d="M88 0V486H146V396H158Q176 435 217.0 465.5Q258 496 336 496Q389 496 433.0 474.0Q477 452 503.5 407.5Q530 363 530 296V0H470V292Q470 372 430.0 407.0Q390 442 323 442Q248 442 198.0 392.5Q148 343 148 243V0Z" transform="translate(51.271 21) scale(0.013000 -0.013000)"/><path d="M64 241V253Q64 330 95.5 385.0Q127 440 180.0 470.0Q233 500 298 500Q378 500 422.5 468.5Q467 437 488 397H500V486H556V-124Q556 -160 537.0 -180.0Q518 -200 479 -200H147V-146H467Q498 -146 498 -116V93H486Q473 69 449.5 46.0Q426 23 389.0 8.5Q352 -6 298 -6Q233 -6 179.5 24.0Q126 54 95.0 109.5Q64 165 64 241ZM312 48Q395 48 446.5 100.0Q498 152 498 243V251Q498 343 446.5 394.5Q395 446 312 446Q230 446 178.0 394.5Q126 343 126 251V243Q126 152 178.0 100.0Q230 48 312 48Z" transform="translate(59.227 21) scale(0.013000 -0.013000)"/></g>
</svg>
